<mxfile host="65bd71144e" scale="3" border="0">
    <diagram id="QMohp7Uz-Dhn2PAHreEm" name="Page-1">
        <mxGraphModel dx="564" dy="208" grid="1" gridSize="10" guides="1" tooltips="1" connect="1" arrows="1" fold="1" page="1" pageScale="1" pageWidth="1169" pageHeight="827" background="#F4F1DE" math="0" shadow="0">
            <root>
                <mxCell id="0"/>
                <mxCell id="1" parent="0"/>
                <mxCell id="40" value="" style="rounded=0;whiteSpace=wrap;html=1;sketch=0;fontColor=#393C56;strokeColor=#E07A5F;fillColor=#F2CC8F;opacity=10;" parent="1" vertex="1">
                    <mxGeometry x="30" y="250" width="540" height="500" as="geometry"/>
                </mxCell>
                <mxCell id="23" value="" style="group;fontColor=#393C56;" parent="1" vertex="1" connectable="0">
                    <mxGeometry x="180" y="300" width="360" height="400" as="geometry"/>
                </mxCell>
                <mxCell id="4" value="Artists" style="rounded=0;whiteSpace=wrap;html=1;sketch=1;fontColor=#393C56;strokeColor=#E07A5F;fillColor=#F2CC8F;" parent="23" vertex="1">
                    <mxGeometry x="85" y="-10" width="150" height="60" as="geometry"/>
                </mxCell>
                <mxCell id="2" value="Album Data Creation" style="rounded=0;whiteSpace=wrap;html=1;sketch=1;fontColor=#393C56;strokeColor=#E07A5F;fillColor=#F2CC8F;" parent="23" vertex="1">
                    <mxGeometry x="100" y="110" width="120" height="60" as="geometry"/>
                </mxCell>
                <mxCell id="3" value="Album Market" style="rounded=0;whiteSpace=wrap;html=1;sketch=1;fontColor=#393C56;strokeColor=#E07A5F;fillColor=#F2CC8F;" parent="23" vertex="1">
                    <mxGeometry x="100" y="220" width="120" height="60" as="geometry"/>
                </mxCell>
                <mxCell id="13" style="edgeStyle=orthogonalEdgeStyle;curved=0;rounded=1;sketch=1;orthogonalLoop=1;jettySize=auto;html=1;entryX=0.5;entryY=0;entryDx=0;entryDy=0;fontColor=#393C56;strokeColor=#E07A5F;fillColor=#F2CC8F;labelBackgroundColor=#F4F1DE;" parent="23" source="2" target="3" edge="1">
                    <mxGeometry relative="1" as="geometry"/>
                </mxCell>
                <mxCell id="12" style="edgeStyle=orthogonalEdgeStyle;curved=0;rounded=1;sketch=1;orthogonalLoop=1;jettySize=auto;html=1;entryX=0.5;entryY=0;entryDx=0;entryDy=0;fontColor=#393C56;strokeColor=#E07A5F;fillColor=#F2CC8F;labelBackgroundColor=#F4F1DE;" parent="23" source="4" target="2" edge="1">
                    <mxGeometry relative="1" as="geometry"/>
                </mxCell>
                <mxCell id="9" value="Buyer" style="rounded=0;whiteSpace=wrap;html=1;sketch=1;fontColor=#393C56;strokeColor=#E07A5F;fillColor=#F2CC8F;" parent="23" vertex="1">
                    <mxGeometry x="100" y="340" width="120" height="60" as="geometry"/>
                </mxCell>
                <mxCell id="18" value="" style="endArrow=classic;startArrow=classic;html=1;fontColor=#393C56;strokeColor=#E07A5F;fillColor=#F2CC8F;entryX=0.542;entryY=1.019;entryDx=0;entryDy=0;entryPerimeter=0;labelBackgroundColor=#F4F1DE;" parent="23" target="3" edge="1">
                    <mxGeometry width="50" height="50" relative="1" as="geometry">
                        <mxPoint x="165" y="336" as="sourcePoint"/>
                        <mxPoint x="170" y="279.9999999999999" as="targetPoint"/>
                    </mxGeometry>
                </mxCell>
                <mxCell id="19" value="&lt;b&gt;Create Album&lt;/b&gt;" style="text;html=1;align=center;verticalAlign=middle;resizable=0;points=[];autosize=1;strokeColor=none;fontColor=#393C56;" parent="23" vertex="1">
                    <mxGeometry x="160" y="70" width="90" height="20" as="geometry"/>
                </mxCell>
                <mxCell id="20" value="&lt;b&gt;List Album&amp;nbsp;&lt;/b&gt;" style="text;html=1;align=center;verticalAlign=middle;resizable=0;points=[];autosize=1;strokeColor=none;fontColor=#393C56;" parent="23" vertex="1">
                    <mxGeometry x="185" y="180" width="80" height="20" as="geometry"/>
                </mxCell>
                <mxCell id="21" value="&lt;b&gt;Buys Albums Copies&lt;br&gt;&lt;/b&gt;" style="text;html=1;align=center;verticalAlign=middle;resizable=0;points=[];autosize=1;strokeColor=none;fontColor=#393C56;rotation=0;" parent="23" vertex="1">
                    <mxGeometry x="170" y="300" width="130" height="20" as="geometry"/>
                </mxCell>
                <mxCell id="37" style="edgeStyle=orthogonalEdgeStyle;rounded=0;orthogonalLoop=1;jettySize=auto;html=1;entryX=0.5;entryY=1;entryDx=0;entryDy=0;strokeColor=#E07A5F;fontColor=#393C56;labelBackgroundColor=#F4F1DE;" parent="1" source="10" target="36" edge="1">
                    <mxGeometry relative="1" as="geometry"/>
                </mxCell>
                <mxCell id="10" value="Seller" style="rounded=0;whiteSpace=wrap;html=1;sketch=1;fontColor=#393C56;strokeColor=#E07A5F;fillColor=#F2CC8F;" parent="1" vertex="1">
                    <mxGeometry x="70" y="640" width="120" height="60" as="geometry"/>
                </mxCell>
                <mxCell id="36" value="Songs Market" style="rounded=0;whiteSpace=wrap;html=1;sketch=1;fontColor=#393C56;strokeColor=#E07A5F;fillColor=#F2CC8F;" parent="1" vertex="1">
                    <mxGeometry x="70" y="510" width="120" height="60" as="geometry"/>
                </mxCell>
                <mxCell id="38" style="edgeStyle=orthogonalEdgeStyle;curved=0;rounded=1;sketch=0;orthogonalLoop=1;jettySize=auto;html=1;entryX=1;entryY=0.5;entryDx=0;entryDy=0;fontColor=#393C56;strokeColor=#E07A5F;fillColor=#F2CC8F;labelBackgroundColor=#F4F1DE;" parent="1" source="9" target="10" edge="1">
                    <mxGeometry relative="1" as="geometry"/>
                </mxCell>
                <mxCell id="22" value="&lt;b&gt;Sells Songs&lt;br&gt;gets NEAR&lt;br&gt;&lt;/b&gt;" style="text;html=1;align=center;verticalAlign=middle;resizable=0;points=[];autosize=1;strokeColor=none;fontColor=#393C56;" parent="1" vertex="1">
                    <mxGeometry x="50" y="590" width="80" height="30" as="geometry"/>
                </mxCell>
            </root>
        </mxGraphModel>
    </diagram>
</mxfile>